<svg width="166" height="133" viewBox="0 0 166 133" fill="none" xmlns="http://www.w3.org/2000/svg">
<path d="M4.09192 132.318H161.875C163.446 132.318 164.403 130.59 163.571 129.258L84.6794 3.03113C83.8961 1.77779 82.0708 1.77779 81.2874 3.03113L2.39593 129.258C1.56337 130.59 2.52105 132.318 4.09192 132.318Z" fill="#D8E6FF"/>
<path d="M81.2602 21.9879C82.1621 20.5712 84.194 20.5267 85.1664 21.855L85.2573 21.9879L147.955 120.476C148.958 122.053 147.826 124.117 145.956 124.118H20.561C18.7499 124.118 17.6297 122.18 18.4741 120.626L18.5629 120.476L81.2602 21.9879Z" stroke="#E8F0FF"/>
<path d="M82.3514 42.5435C82.838 41.7964 83.8961 41.7548 84.4471 42.4136L84.5497 42.5552L127.957 110.778C128.511 111.648 127.885 112.788 126.853 112.788H39.0174C38.0442 112.788 37.4351 111.775 37.8299 110.932L37.9217 110.766L82.3514 42.5435Z" stroke="#E8F0FF"/>
<path d="M82.5237 63.2066C82.609 63.067 82.7963 63.0481 82.9094 63.1509L82.9533 63.2027L106.606 100.215C106.713 100.384 106.593 100.605 106.393 100.605H60.1262C59.9531 100.605 59.8387 100.439 59.882 100.285L59.9104 100.22L82.5237 63.2066Z" stroke="#E8F0FF"/>
<path d="M2.00003 131.843L82.9834 88.3176M82.9834 88.3176V1.84299M82.9834 88.3176L164 131.843" stroke="#0957D0" stroke-opacity="0.3" stroke-dasharray="2 2"/>
<path d="M64.2834 98.2175L82.9834 26.8429L151.733 125.168L64.2834 98.2175Z" fill="#0957D0" fill-opacity="0.2" stroke="#0957D0" stroke-width="1.5"/>
</svg>
