<svg width="16" height="16" viewBox="0 0 16 16" fill="none" xmlns="http://www.w3.org/2000/svg">
<path d="M15.9375 7.96875C15.9375 12.3594 12.3672 15.9375 7.96875 15.9375C3.57812 15.9375 0 12.3594 0 7.96875C0 3.57031 3.57812 0 7.96875 0C12.3672 0 15.9375 3.57031 15.9375 7.96875ZM6.69531 6.52344C6.36719 6.52344 6.10938 6.78125 6.10938 7.09375C6.10938 7.42969 6.36719 7.67188 6.69531 7.67188H7.55469V11.3438H6.5625C6.22656 11.3438 5.96875 11.6016 5.96875 11.9141C5.96875 12.25 6.22656 12.4922 6.5625 12.4922H9.83594C10.1719 12.4922 10.4297 12.25 10.4297 11.9141C10.4297 11.6016 10.1719 11.3438 9.83594 11.3438H8.84375V7.25781C8.84375 6.82031 8.625 6.52344 8.21094 6.52344H6.69531ZM6.84375 4.13281C6.84375 4.72656 7.3125 5.19531 7.89844 5.19531C8.48438 5.19531 8.94531 4.72656 8.94531 4.13281C8.94531 3.53906 8.48438 3.07031 7.89844 3.07031C7.3125 3.07031 6.84375 3.53906 6.84375 4.13281Z" fill="#A7BADD"/>
</svg>
