<svg width="17" height="16" viewBox="0 0 17 16" fill="none" xmlns="http://www.w3.org/2000/svg">
<path d="M16.5938 7.99609C16.5938 12.3867 13.0234 15.9648 8.625 15.9648C4.23437 15.9648 0.65625 12.3867 0.65625 7.99609C0.65625 3.59765 4.23437 0.0273438 8.625 0.0273438C13.0234 0.0273438 16.5938 3.59765 16.5938 7.99609ZM7.35156 6.55078C7.02344 6.55078 6.76563 6.80859 6.76563 7.12109C6.76563 7.45703 7.02344 7.69922 7.35156 7.69922H8.21094V11.3711H7.21875C6.88281 11.3711 6.625 11.6289 6.625 11.9414C6.625 12.2773 6.88281 12.5195 7.21875 12.5195H10.4922C10.8282 12.5195 11.0859 12.2773 11.0859 11.9414C11.0859 11.6289 10.8282 11.3711 10.4922 11.3711H9.5V7.28515C9.5 6.84765 9.28125 6.55078 8.86719 6.55078H7.35156ZM7.5 4.16015C7.5 4.7539 7.96875 5.22265 8.55469 5.22265C9.14063 5.22265 9.60156 4.7539 9.60156 4.16015C9.60156 3.5664 9.14063 3.09765 8.55469 3.09765C7.96875 3.09765 7.5 3.5664 7.5 4.16015Z" fill="#A7BADD"/>
</svg>
