<svg width="308" height="6" viewBox="0 0 308 6" fill="none" xmlns="http://www.w3.org/2000/svg">
<rect width="308" height="3" rx="1.5" fill="url(#paint0_linear_104_1423)"/>
<path d="M92 1C92 0.447715 92.4477 0 93 0C93.5523 0 94 0.447715 94 1V5C94 5.55228 93.5523 6 93 6C92.4477 6 92 5.55228 92 5V1Z" fill="#D9D717"/>
<path d="M214 1C214 0.447715 214.448 0 215 0C215.552 0 216 0.447715 216 1V5C216 5.55228 215.552 6 215 6C214.448 6 214 5.55228 214 5V1Z" fill="#D9D717"/>
<defs>
<linearGradient id="paint0_linear_104_1423" x1="3.20809e-06" y1="1.4995" x2="308.564" y2="2.77719" gradientUnits="userSpaceOnUse">
<stop stop-color="#FF453A"/>
<stop offset="0.213615" stop-color="#FFD60A"/>
<stop offset="0.588581" stop-color="#32D74B"/>
<stop offset="0.998007" stop-color="#2DAD14"/>
</linearGradient>
</defs>
</svg>
