<svg width="9" height="12" viewBox="0 0 9 12" fill="none" xmlns="http://www.w3.org/2000/svg">
<mask id="path-1-inside-1_259_1207" fill="white">
<path d="M6.96119e-08 5.99986L9 0.169917L9 11.8375L6.96119e-08 5.99986Z"/>
</mask>
<path d="M6.96119e-08 5.99986L9 0.169917L9 11.8375L6.96119e-08 5.99986Z" fill="#F3F8FF"/>
<path d="M6.96119e-08 5.99986L-0.543673 5.16057C-0.828132 5.34483 -0.999898 5.66064 -1 5.99956C-1.0001 6.33849 -0.828525 6.6544 -0.544175 6.83884L6.96119e-08 5.99986ZM9 0.169917L10 0.169917L10 -1.66933L8.45633 -0.66938L9 0.169917ZM9 11.8375L8.45582 12.6764L10 13.678L10 11.8375L9 11.8375ZM6.96119e-08 5.99986L0.543673 6.83916L9.54367 1.00921L9 0.169917L8.45633 -0.66938L-0.543673 5.16057L6.96119e-08 5.99986ZM9 0.169917L8 0.169917L8 11.8375L9 11.8375L10 11.8375L10 0.169917L9 0.169917ZM9 11.8375L9.54418 10.9985L0.544176 5.16089L6.96119e-08 5.99986L-0.544175 6.83884L8.45582 12.6764L9 11.8375Z" fill="#D8E6FF" mask="url(#path-1-inside-1_259_1207)"/>
<path d="M8 10L9 11V1L8 2V10Z" fill="#F3F8FF"/>
</svg>
