<svg width="20" height="19" viewBox="0 0 20 19" fill="none" xmlns="http://www.w3.org/2000/svg">
<path d="M18.6113 9.49561C18.6113 14.4351 14.5947 18.4604 9.64648 18.4604C4.70703 18.4604 0.681641 14.4351 0.681641 9.49561C0.681641 4.54736 4.70703 0.530762 9.64648 0.530762C14.5947 0.530762 18.6113 4.54736 18.6113 9.49561ZM9.08398 4.92529V6.35791C9.08398 6.66552 9.30371 6.92041 9.6289 6.92041C9.94532 6.92041 10.1738 6.66552 10.1738 6.35791V5.57569C12.1426 5.82177 13.5928 7.44776 13.5928 9.49561C13.5928 11.7104 11.8701 13.4507 9.64648 13.4507C7.43164 13.4507 5.6914 11.7104 5.6914 9.49561C5.6914 8.50244 6.04296 7.63232 6.63183 6.93799C6.83398 6.69189 6.86035 6.34033 6.62305 6.10302C6.37695 5.84814 5.98145 5.8833 5.73535 6.17333C4.9707 7.06104 4.49609 8.23877 4.49609 9.49561C4.49609 12.3169 6.8252 14.646 9.64648 14.646C12.4678 14.646 14.7969 12.3169 14.7969 9.49561C14.7969 6.67432 12.4678 4.34521 9.65527 4.34521C9.27734 4.34521 9.08398 4.59131 9.08398 4.92529ZM7.48438 7.72901L9.0752 10.0933C9.42676 10.6294 10.0596 10.7173 10.5078 10.2778C10.9473 9.81201 10.8594 9.19677 10.3408 8.83642L7.97657 7.24561C7.61621 7.02588 7.24707 7.37744 7.48438 7.72901Z" fill="#0957D0"/>
</svg>
