<svg width="20" height="19" viewBox="0 0 20 19" fill="none" xmlns="http://www.w3.org/2000/svg">
<path d="M18.6113 9.49561C18.6113 14.4351 14.5947 18.4604 9.64648 18.4604C4.70703 18.4604 0.681641 14.4351 0.681641 9.49561C0.681641 4.54736 4.70703 0.530762 9.64648 0.530762C14.5947 0.530762 18.6113 4.54736 18.6113 9.49561ZM12.1953 8.4585V9.62744C12.1953 11.1128 11.1406 12.1586 9.64648 12.1586C8.15234 12.1586 7.10645 11.1128 7.10645 9.62744V8.4585C7.10645 8.20361 6.88671 7.98389 6.62305 7.98389C6.36817 7.98389 6.14844 8.20361 6.14844 8.4585V9.62744C6.14844 11.4731 7.36133 12.8442 9.16308 13.0464V13.9604H7.34376C7.08008 13.9604 6.85157 14.1889 6.85157 14.4526C6.85157 14.7163 7.08008 14.936 7.34376 14.936H11.958C12.2129 14.936 12.4414 14.7076 12.4414 14.4526C12.4414 14.1889 12.2217 13.9604 11.958 13.9604H10.1475V13.0464C11.9404 12.8354 13.1533 11.4731 13.1533 9.62744V8.4585C13.1533 8.20361 12.9248 7.98389 12.6699 7.98389C12.4063 7.98389 12.1953 8.20361 12.1953 8.4585ZM8.14355 5.74267V9.62744C8.14355 10.5503 8.75879 11.2446 9.64648 11.2446C10.5342 11.2446 11.1494 10.5503 11.1494 9.62744V5.74267C11.1494 4.82861 10.5342 4.15186 9.64648 4.15186C8.75879 4.15186 8.14355 4.82861 8.14355 5.74267Z" fill="#0957D0"/>
</svg>
